# xmcd
#
# Track frame offsets:
#	150
#	17238
#	26437
#	71543
#	100921
#	130879
#	144335
#	158035
#	186276
#	207122
#	233902
#	264650
#	286609
#
# Disc length: 4021 seconds
#
# Revision: 1
# Processed by: cddbd v1.5.2PL0 Copyright (c) Steve Scherf et al.
# Submitted via: audiograbber 1.83.01
#
DISCID=b00fb30d
DTITLE=Grateful Dead - 70-06-24A Capitol Theatre, Port Chester NY
DYEAR=1900
DGENRE=
TTITLE0=Me and My Uncle
TTITLE1=Mickey's Gong
TTITLE2=Dark Star
TTITLE3=Attics Of My Life
TTITLE4=Dark Star
TTITLE5=Sugar Magnolia
TTITLE6=Dark Star
TTITLE7=St Stephen
TTITLE8=China Cat Sunflower
TTITLE9=I Know You Rider
TTITLE10=Uncle John's Band
TTITLE11="Exit Music"
TTITLE12=Swing Low Sweet Chariot
EXTD=
EXTT0=
EXTT1=
EXTT2=
EXTT3=
EXTT4=
EXTT5=
EXTT6=
EXTT7=
EXTT8=
EXTT9=
EXTT10=
EXTT11=
EXTT12=
PLAYORDER=
